<?xml version="1.0" encoding="UTF-8"?>
<svg version="1.1" xmlns="http://www.w3.org/2000/svg" width="256" height="256">
<path d="M0 0 C4.99624289 4.41528441 6.24527598 9.87909733 7.375 16.25 C7.56932617 17.28253906 7.56932617 17.28253906 7.76757812 18.3359375 C8.08224121 20.01414062 8.38601465 21.69437953 8.6875 23.375 C9.27917969 23.46136719 9.87085938 23.54773438 10.48046875 23.63671875 C16.02894055 24.62331488 19.03499222 25.80936527 22.6875 30.375 C24.08416457 33.16832914 23.78918176 35.43546474 23.76586914 38.56079102 C23.75753052 40.52631927 23.75753052 40.52631927 23.74902344 42.53155518 C23.74439087 43.23789345 23.7397583 43.94423172 23.73498535 44.67197418 C23.55414494 77.04274416 23.54024951 108.2948832 31.47981262 139.88090515 C32.88290334 145.66495386 34.49394462 152.7580493 31.71020508 158.33178711 C29.38220888 161.38323504 27.37307434 162.6662357 23.6875 163.375 C23.70844727 163.97973145 23.72939453 164.58446289 23.75097656 165.20751953 C23.83458945 167.97150771 23.88630054 170.73522913 23.9375 173.5 C23.97101563 174.45132813 24.00453125 175.40265625 24.0390625 176.3828125 C24.12043103 182.24134689 23.75093603 185.79998029 19.6875 190.375 C15.24993285 193.3333781 11.35685428 193.50155914 6.11447144 193.46592712 C5.0033197 193.46126434 3.89216797 193.45660156 2.74734497 193.45179749 C1.53634125 193.4418425 0.32533752 193.43188751 -0.92236328 193.42163086 C-2.89491152 193.41216471 -4.86745993 193.40271716 -6.84001136 193.39394009 C-8.2409515 193.38740922 -9.64188864 193.38020562 -11.04282212 193.37237632 C-16.24902845 193.34329807 -21.45506248 193.33201786 -26.66134644 193.33094788 C-27.42389461 193.33076611 -28.18644278 193.33058434 -28.97209847 193.33039707 C-32.12341901 193.3299467 -35.2747394 193.33002969 -38.42605996 193.3302325 C-47.25945206 193.32997141 -56.09212627 193.31426046 -64.92529297 193.24829102 C-74.24475162 193.18131295 -83.56322027 193.16352909 -92.8828125 193.21484375 C-94.02444335 193.22100684 -94.02444335 193.22100684 -95.18913746 193.22729445 C-121.69309113 193.40310675 -146.70848543 196.28673127 -172.4904747 202.87761879 C-178.71732047 204.43201568 -184.55782957 205.69936078 -190.5625 202.8125 C-193.0155129 200.63823856 -193.85424597 199.59222954 -195.25 196.8125 C-197.32306189 192.73576742 -200.0726734 191.96493497 -204.3125 190.375 C-207.39384655 187.86126992 -208.60479409 186.2361825 -209.3125 182.375 C-209.36244086 180.76289899 -209.35677509 179.14861641 -209.31152344 177.53637695 C-209.29002731 176.56287292 -209.26853119 175.5893689 -209.24638367 174.58636475 C-209.22179581 173.52274719 -209.19720795 172.45912964 -209.171875 171.36328125 C-208.75743707 139.59263719 -211.80169551 110.52352665 -218.73925781 79.55395508 C-218.88847026 78.88398058 -219.0376827 78.21400608 -219.19141674 77.52372932 C-219.89110518 74.3893257 -220.6071762 71.26079832 -221.3561554 68.13775635 C-225.39560931 50.65991459 -225.39560931 50.65991459 -222.33961487 44.37379456 C-220.16223575 41.60535419 -217.68185537 39.42792355 -214.3125 38.375 C-211.5625 38.25 -211.5625 38.25 -209.3125 38.375 C-209.18294922 37.47007813 -209.18294922 37.47007813 -209.05078125 36.546875 C-207.89494198 29.97237639 -207.89494198 29.97237639 -204.875 26.875 C-201.20278048 24.72540809 -198.60455767 24.26254264 -194.43257141 24.36903381 C-193.42449495 24.38907282 -192.4164185 24.40911182 -191.37779427 24.42975807 C-190.27125937 24.45301847 -189.16472446 24.47627888 -188.0246582 24.50024414 C-159.71605184 24.84191355 -132.65450835 23.35822437 -104.85546875 17.80859375 C-104.16873785 17.67165997 -103.48200696 17.53472619 -102.77446604 17.3936429 C-94.43688121 15.72302728 -86.1190166 13.96458901 -77.8076793 12.16841948 C-68.53575055 10.16683188 -59.24465413 8.25738289 -49.95486164 6.34078312 C-48.56985795 6.05487964 -47.18486431 5.76892752 -45.79988098 5.48292542 C-45.12391619 5.3434107 -44.44795139 5.20389598 -43.75150281 5.06015354 C-39.16937918 4.11228411 -34.59269382 3.14121649 -30.01737976 2.16099548 C-28.81412552 1.90593735 -27.61087128 1.65087921 -26.37115479 1.38809204 C-24.14266268 0.9153536 -21.91543402 0.43659898 -19.68983459 -0.04957581 C-5.98687679 -2.93695842 -5.98687679 -2.93695842 0 0 Z " fill="#F4F7F7" transform="translate(223.3125,26.625)"/>
<path d="M0 0 C1.10133559 -0.00573832 1.10133559 -0.00573832 2.22492039 -0.01159257 C4.68608128 -0.02191432 7.14700852 -0.01793201 9.60818481 -0.01396179 C11.37241838 -0.01830876 13.13665005 -0.02349185 14.90087891 -0.02944946 C19.6943017 -0.04285317 24.4876457 -0.04341655 29.28108358 -0.04088616 C33.28210369 -0.03981727 37.28310781 -0.04469779 41.28412449 -0.04949158 C50.72353695 -0.06059176 60.16290961 -0.06102146 69.60232544 -0.05497742 C79.3407762 -0.04893776 89.07908247 -0.06124728 98.81750858 -0.08254749 C107.17770811 -0.10016094 115.53786164 -0.1061652 123.89807904 -0.10290974 C128.89158436 -0.10109615 133.88498665 -0.10374052 138.87847519 -0.11762428 C143.57510243 -0.13019363 148.27150445 -0.12826696 152.9681282 -0.11521339 C154.69104844 -0.11284602 156.41398448 -0.11558805 158.1368866 -0.12383652 C160.49077052 -0.13429241 162.84389712 -0.12621307 165.19775391 -0.11352539 C166.51440977 -0.11369313 167.83106564 -0.11386087 169.18762016 -0.1140337 C173.78674778 0.37305349 177.10520234 1.83951712 180.57957458 4.88624573 C182.37388867 8.60304089 182.11780821 12.17852617 182.06643677 16.25190735 C182.06687485 17.15957352 182.06731293 18.06723969 182.06776428 19.00241089 C182.06567558 22.00018381 182.0423405 24.99739628 182.01882935 27.99507141 C182.01323369 30.07443435 182.00896345 32.15380125 182.00596619 34.23316956 C181.99451509 39.70443147 181.96504546 45.17545424 181.93185425 50.6466217 C181.90115918 56.23018661 181.88746204 61.81379019 181.87234497 67.39741516 C181.84017616 78.35194728 181.78897646 89.30630195 181.7258606 100.26069641 C177.63072435 100.58622294 173.53555822 100.85902139 169.4337616 101.0861969 C168.04313746 101.17029981 166.6532614 101.26804548 165.26463318 101.38038635 C158.13985774 101.94794424 152.19041288 102.35224645 146.18875122 97.89741516 C142.78903383 94.88695174 139.93315335 91.502582 137.14456177 87.92842102 C133.91532509 84.13235912 130.4323441 83.15111221 125.7258606 82.26069641 C125.0658606 81.60069641 124.4058606 80.94069641 123.7258606 80.26069641 C120.42871267 80.5904112 119.1031767 80.88338031 116.7258606 83.26069641 C113.42871267 82.93098162 112.1031767 82.63801251 109.7258606 80.26069641 C106.42871267 80.5904112 105.1031767 80.88338031 102.7258606 83.26069641 C101.63402466 83.20526672 100.54218872 83.14983704 99.41726685 83.09272766 C95.66179274 82.91448189 95.66179274 82.91448189 93.06570435 85.27241516 C91.87654419 86.59692688 91.87654419 86.59692688 90.6633606 87.94819641 C85.17084345 93.86772328 85.17084345 93.86772328 82.1633606 96.26069641 C79.67276387 98.02707083 79.67276387 98.02707083 78.7258606 100.26069641 C77.7358606 100.26069641 76.7458606 100.26069641 75.7258606 100.26069641 C74.2270813 98.67524719 74.2270813 98.67524719 72.65164185 96.45600891 C72.06979126 95.64897522 71.48794067 94.84194153 70.88845825 94.01045227 C70.27792603 93.14428284 69.6673938 92.2781134 69.0383606 91.38569641 C67.78354114 89.63838707 66.52704203 87.89228268 65.26882935 86.14741516 C64.66216431 85.30356262 64.05549927 84.45971008 63.43045044 83.59028625 C60.75406284 79.93258209 57.89884524 76.44569278 54.9836731 72.97554016 C53.7258606 71.26069641 53.7258606 71.26069641 53.7258606 69.26069641 C52.7977356 69.48757141 51.8696106 69.71444641 50.9133606 69.94819641 C49.8614856 70.05132141 48.8096106 70.15444641 47.7258606 70.26069641 C46.70566486 69.28130851 45.70436254 68.28174192 44.7258606 67.26069641 C41.38393367 67.50522765 40.12042502 67.86613199 37.7258606 70.26069641 C34.42871267 69.93098162 33.1031767 69.63801251 30.7258606 67.26069641 C28.15524749 66.61301848 28.15524749 66.61301848 25.7258606 66.26069641 C25.2308606 67.74569641 25.2308606 67.74569641 24.7258606 69.26069641 C19.9758606 70.26069641 19.9758606 70.26069641 17.7258606 70.26069641 C16.34698726 71.65649877 16.34698726 71.65649877 14.9602356 73.53022766 C14.40650269 74.24541565 13.85276978 74.96060364 13.28225708 75.69746399 C12.68614624 76.48145569 12.0900354 77.26544739 11.4758606 78.07319641 C10.85976929 78.87330139 10.24367798 79.67340637 9.60891724 80.49775696 C4.4398523 87.24198124 -0.60321217 94.07953589 -5.56613159 100.97676086 C-6.11043823 101.72659241 -6.65474487 102.47642395 -7.21554565 103.24897766 C-7.68677856 103.90422424 -8.15801147 104.55947083 -8.64352417 105.23457336 C-10.67922268 107.76403316 -12.96786653 109.97819637 -15.2741394 112.26069641 C-15.36682288 98.80446399 -15.43789634 85.34830753 -15.48138809 71.89182091 C-15.50226205 65.6434082 -15.53057687 59.39521389 -15.57589722 53.14692688 C-15.61936078 47.11689228 -15.64327795 41.08706774 -15.65364838 35.05688858 C-15.66103875 32.75637632 -15.67547034 30.45587555 -15.69705963 28.15545273 C-15.72609953 24.93295706 -15.73009504 21.71132924 -15.72824097 18.48872375 C-15.74262207 17.5378186 -15.75700317 16.58691345 -15.77182007 15.60719299 C-15.73702108 10.0169839 -15.15714538 6.60535541 -11.2741394 2.26069641 C-7.65473966 -0.18716699 -4.28502927 0.00668485 0 0 Z " fill="#38A2F2" transform="translate(47.274139404296875,63.73930358886719)"/>
<path d="M0 0 C2.5 0.375 2.5 0.375 4 1.9375 C4.495 2.411875 4.99 2.88625 5.5 3.375 C8.84192692 3.13046876 10.10543557 2.76956443 12.5 0.375 C15.79714793 0.70471479 17.1226839 0.9976839 19.5 3.375 C20.41265625 3.26800781 21.3253125 3.16101563 22.265625 3.05078125 C25.5 3.375 25.5 3.375 26.95117188 4.65771484 C28.48159139 6.57073924 29.87538656 8.53455492 31.25 10.5625 C32.2905521 12.02813569 33.33223774 13.49296721 34.375 14.95703125 C35.15230469 16.06618896 35.15230469 16.06618896 35.9453125 17.19775391 C38.68173555 21.02994938 41.62126297 24.70431849 44.55371094 28.38745117 C47.5 32.15804319 47.5 32.15804319 47.5 34.375 C48.49 34.375 49.48 34.375 50.5 34.375 C50.69851562 33.84132812 50.89703125 33.30765625 51.1015625 32.7578125 C53.12761569 29.30559896 55.92485885 26.92072249 58.875 24.25 C59.4525 23.71246094 60.03 23.17492187 60.625 22.62109375 C67.50067993 16.3262361 67.50067993 16.3262361 72.0625 16.4375 C74.5794421 16.6589067 74.5794421 16.6589067 76 14.8125 C76.495 14.338125 76.99 13.86375 77.5 13.375 C80.84192692 13.61953124 82.10543557 13.98043557 84.5 16.375 C87.79714793 16.04528521 89.1226839 15.7523161 91.5 13.375 C94.79714793 13.70471479 96.1226839 13.9976839 98.5 16.375 C99.26957031 16.33503906 100.03914062 16.29507813 100.83203125 16.25390625 C104.48271042 16.41960325 105.58915077 17.80004661 108.1875 20.3125 C109.04472656 21.1271875 109.90195313 21.941875 110.78515625 22.78125 C112.12900391 24.06515625 112.12900391 24.06515625 113.5 25.375 C116.21396051 27.7677162 118.93753336 30.14897141 121.6640625 32.52734375 C123.5 34.375 123.5 34.375 123.5 36.375 C122.68958252 37.06875732 121.87916504 37.76251465 121.04418945 38.47729492 C117.80340609 42.16838578 117.76875498 45.04871638 117.79296875 49.73828125 C117.77028679 50.92625557 117.77028679 50.92625557 117.74714661 52.13822937 C117.7043362 54.65494403 117.69543868 57.17045782 117.6875 59.6875 C117.66435031 61.39912032 117.63898397 63.11071219 117.61132812 64.82226562 C117.5485423 69.00661625 117.51615501 73.19022004 117.5 77.375 C97.80259965 77.4684822 78.10524437 77.53899826 58.40766811 77.58224869 C49.26153074 77.60286528 40.11553127 77.63096859 30.96948242 77.67675781 C22.99686355 77.71665326 15.02434457 77.74243938 7.05162865 77.75135398 C2.83092351 77.75656416 -1.38949587 77.76879101 -5.61010933 77.79792023 C-9.58525461 77.82513224 -13.55999725 77.83343341 -17.53522682 77.82743073 C-18.99167318 77.82852839 -20.44813343 77.83644807 -21.90449905 77.8518219 C-35.62495094 77.98951722 -35.62495094 77.98951722 -41.5 73.375 C-45.95721412 67.14020644 -44.85185027 56.57380053 -44.13378906 49.33691406 C-42.4920135 41.66433274 -36.69426512 36.2214299 -31.51513672 30.64013672 C-28.02291654 26.714668 -25.00646029 22.4462294 -21.9375 18.1875 C-20.81174333 16.65194374 -19.68546781 15.11676769 -18.55859375 13.58203125 C-15.84746484 9.86388734 -13.16709984 6.12483311 -10.5 2.375 C-9.736875 2.601875 -8.97375 2.82875 -8.1875 3.0625 C-7.300625 3.165625 -6.41375 3.26875 -5.5 3.375 C-2.34536082 0.35180412 -2.34536082 0.35180412 0 0 Z " fill="#91D201" transform="translate(75.5,129.625)"/>
<path d="M0 0 C0.33 0 0.66 0 1 0 C1.33 48.18 1.66 96.36 2 146 C60.08 146.33 118.16 146.66 178 147 C178.92538169 150.70152678 179.08174162 151.63458162 178 155 C183.37774001 151.79324286 187.23966111 147.79855477 191.4375 143.1875 C198.59965381 135.44363567 205.95969745 127.936861 213.46142578 120.52294922 C214.83475651 119.16356535 216.20107062 117.79710127 217.56640625 116.4296875 C219.3198097 114.6790985 221.08570653 112.94099117 222.859375 111.2109375 C223.82294136 110.26565017 224.7864829 109.32033754 225.75 108.375 C226.24371094 107.89804688 226.73742187 107.42109375 227.24609375 106.9296875 C231.85343593 102.38545959 232.13541472 99.26048464 232.31640625 92.92578125 C232.3475779 91.90003242 232.3475779 91.90003242 232.37937927 90.8535614 C232.44466154 88.6733079 232.50366017 86.49293595 232.5625 84.3125 C232.60570553 82.83267014 232.64932047 81.35285217 232.69335938 79.87304688 C232.80032083 76.24882378 232.90164823 72.62446811 233 69 C233.33 69 233.66 69 234 69 C235.15297513 74.63493595 236.29172062 80.27250303 237.41796875 85.9128418 C237.80219038 87.82701977 238.19013692 89.7404543 238.58203125 91.65307617 C243.84055849 117.34876222 243.84055849 117.34876222 241.02246094 122.93920898 C238.70587021 126.00829168 236.69086904 127.29021749 233 128 C233.02094727 128.60473145 233.04189453 129.20946289 233.06347656 129.83251953 C233.14708945 132.59650771 233.19880054 135.36022913 233.25 138.125 C233.28351563 139.07632813 233.31703125 140.02765625 233.3515625 141.0078125 C233.43293103 146.86634689 233.06343603 150.42498029 229 155 C224.56243285 157.9583781 220.66935428 158.12655914 215.42697144 158.09092712 C214.3158197 158.08626434 213.20466797 158.08160156 212.05984497 158.07679749 C210.84884125 158.0668425 209.63783752 158.05688751 208.39013672 158.04663086 C206.41758848 158.03716471 204.44504007 158.02771716 202.47248864 158.01894009 C201.0715485 158.01240922 199.67061136 158.00520562 198.26967788 157.99737632 C193.06347155 157.96829807 187.85743752 157.95701786 182.65115356 157.95594788 C181.88860539 157.95576611 181.12605722 157.95558434 180.34040153 157.95539707 C177.18908099 157.9549467 174.0377606 157.95502969 170.88644004 157.9552325 C162.05304794 157.95497141 153.22037373 157.93926046 144.38720703 157.87329102 C135.06774838 157.80631295 125.74927973 157.78852909 116.4296875 157.83984375 C115.28805665 157.84600684 115.28805665 157.84600684 114.12336254 157.85229445 C87.61940887 158.02810675 62.60401457 160.91173127 36.8220253 167.50261879 C30.59517953 169.05701568 24.75467043 170.32436078 18.75 167.4375 C16.2969871 165.26323856 15.45825403 164.21722954 14.0625 161.4375 C11.98943811 157.36076742 9.2398266 156.58993497 5 155 C1.91865345 152.48626992 0.70770591 150.8611825 0 147 C-0.04994086 145.38789899 -0.04427509 143.77361641 0.00097656 142.16137695 C0.02247269 141.18787292 0.04396881 140.2143689 0.06611633 139.21136475 C0.09070419 138.14774719 0.11529205 137.08412964 0.140625 135.98828125 C0.55506293 104.21763719 -2.48919551 75.14852665 -9.42675781 44.17895508 C-9.57597026 43.50898058 -9.7251827 42.83900608 -9.87891674 42.14872932 C-10.57860518 39.0143257 -11.2946762 35.88579832 -12.0436554 32.76275635 C-16.08310931 15.28491459 -16.08310931 15.28491459 -13.02711487 8.99879456 C-10.84973575 6.23035419 -8.36935537 4.05292355 -5 3 C-2.25 2.875 -2.25 2.875 0 3 C0 2.01 0 1.02 0 0 Z " fill="#9FAFAF" transform="translate(14,62)"/>
<path d="M0 0 C3.34192692 0.24453124 4.60543557 0.60543557 7 3 C10.29714793 2.67028521 11.6226839 2.3773161 14 0 C17.29714793 0.32971479 18.6226839 0.6226839 21 3 C21.76957031 2.96003906 22.53914062 2.92007813 23.33203125 2.87890625 C26.98271042 3.04460325 28.08915077 4.42504661 30.6875 6.9375 C31.54472656 7.7521875 32.40195313 8.566875 33.28515625 9.40625 C34.62900391 10.69015625 34.62900391 10.69015625 36 12 C38.71396051 14.3927162 41.43753336 16.77397141 44.1640625 19.15234375 C46 21 46 21 46 23 C44.35 24.65 42.7 26.3 41 28 C40.67 39.88 40.34 51.76 40 64 C-10.16 64 -60.32 64 -112 64 C-112 63.67 -112 63.34 -112 63 C-74.38 63 -36.76 63 2 63 C-4.49725782 54.33698958 -10.98197488 45.69605279 -17.59765625 37.12890625 C-21.44365263 32.11973048 -25.2239715 27.06206719 -29 22 C-28.01 21.505 -28.01 21.505 -27 21 C-26.76023437 20.44570312 -26.52046875 19.89140625 -26.2734375 19.3203125 C-24.36580747 15.84444674 -21.54347881 13.51705901 -18.625 10.875 C-18.0475 10.33746094 -17.47 9.79992187 -16.875 9.24609375 C-9.99932007 2.9512361 -9.99932007 2.9512361 -5.4375 3.0625 C-2.9205579 3.2839067 -2.9205579 3.2839067 -1.5 1.4375 C-1.005 0.963125 -0.51 0.48875 0 0 Z " fill="#67C744" transform="translate(153,143)"/>
<path d="M0 0 C0.33 0 0.66 0 1 0 C1.33 48.18 1.66 96.36 2 146 C60.08 146.33 118.16 146.66 178 147 C179.19156292 151.76625167 178.3415946 152.87879351 176 157 C175.34 156.67 174.68 156.34 174 156 C171.80647862 155.91621678 169.61028793 155.90016252 167.41520691 155.91339111 C166.73098909 155.91606452 166.04677127 155.91873792 165.34181958 155.92149234 C163.03797078 155.93159191 160.73422716 155.94879227 158.43041992 155.96582031 C156.78308863 155.97428366 155.13575464 155.98223664 153.48841858 155.98971558 C149.93507882 156.00646195 146.38176706 156.02589565 142.82845116 156.04709625 C137.21071439 156.07964241 131.59297411 156.10039373 125.97517395 156.11834717 C125.02782684 156.12143363 124.08047973 156.1245201 123.10442513 156.12770009 C121.16695346 156.13400834 119.22948174 156.14029808 117.29200995 156.14656973 C104.20946276 156.1896103 91.12704982 156.2413827 78.04467773 156.32226562 C69.22534276 156.37670083 60.40612867 156.41342887 51.58663827 156.42977214 C46.91770685 156.43915705 42.24920998 156.45776931 37.5804348 156.49808502 C33.18829323 156.53590005 28.79669143 156.55049427 24.40439415 156.54724503 C22.79228254 156.55021855 21.18016045 156.56178423 19.56818008 156.58256912 C17.36669269 156.60969485 15.16732047 156.60594145 12.96574402 156.59454346 C11.11821927 156.60340513 11.11821927 156.60340513 9.23337078 156.61244583 C5.09713224 155.82898417 3.62534742 154.21241988 1 151 C-0.19007232 148.05603927 -0.08749207 145.31336358 0.00097656 142.16137695 C0.02247269 141.18787292 0.04396881 140.2143689 0.06611633 139.21136475 C0.09070419 138.14774719 0.11529205 137.08412964 0.140625 135.98828125 C0.55506293 104.21763719 -2.48919551 75.14852665 -9.42675781 44.17895508 C-9.57597026 43.50898058 -9.7251827 42.83900608 -9.87891674 42.14872932 C-10.57860518 39.0143257 -11.2946762 35.88579832 -12.0436554 32.76275635 C-16.08310931 15.28491459 -16.08310931 15.28491459 -13.02711487 8.99879456 C-10.84973575 6.23035419 -8.36935537 4.05292355 -5 3 C-2.25 2.875 -2.25 2.875 0 3 C0 2.01 0 1.02 0 0 Z " fill="#CBD5D4" transform="translate(14,62)"/>
<path d="M0 0 C7.30684681 6.45721346 6.90665772 14.87717451 8.6875 24.375 C-39.8225 24.375 -88.3325 24.375 -138.3125 24.375 C-138.3125 24.045 -138.3125 23.715 -138.3125 23.375 C-121.89375275 20.10613371 -105.47329722 16.84601127 -89.05076599 13.59621429 C-81.42510755 12.08698908 -73.80003058 10.57493564 -66.17626953 9.05615234 C-59.52943511 7.73199704 -52.88155976 6.41322067 -46.23239326 5.10082388 C-42.71354477 4.40608874 -39.1952663 3.7087182 -35.67822266 3.00489807 C-31.74673356 2.21824526 -27.81296656 1.44361353 -23.87890625 0.66992188 C-22.72012466 0.43615341 -21.56134308 0.20238495 -20.3674469 -0.03846741 C-5.84607614 -2.86788641 -5.84607614 -2.86788641 0 0 Z " fill="#B1C0C0" transform="translate(223.3125,26.625)"/>
<path d="M0 0 C5.97545893 3.47157229 9.67037492 7.53840526 11.9296875 14.12109375 C12.96474252 22.67238944 12.7181056 29.92834826 7.5703125 36.984375 C3.77429354 41.70983159 -0.01444168 44.90780953 -6.0703125 46.12109375 C-13.7504099 46.74078415 -20.79074531 47.04813877 -27.0703125 42.12109375 C-33.27014665 36.3471068 -37.09786754 30.43374283 -37.5703125 21.80859375 C-37.35335048 14.94127424 -34.9870882 9.40506449 -30.42578125 4.26953125 C-21.59296549 -3.82555497 -10.67396569 -5.48892542 0 0 Z " fill="#FCC74C" transform="translate(198.0703125,80.87890625)"/>
<path d="M0 0 C4.53342476 0.4731487 8.9418294 0.67633075 13.5 0.625 C20.58954646 0.56170048 27.56176171 1.02387334 34.625 1.625 C34.295 2.615 33.965 3.605 33.625 4.625 C32.95048892 4.6209358 32.27597784 4.6168716 31.58102703 4.61268425 C14.8892142 4.51569784 -1.80171719 4.47727312 -18.49377918 4.49802971 C-26.5672303 4.50676662 -34.63984362 4.49795199 -42.71313477 4.44335938 C-52.06559695 4.38263741 -61.41701959 4.37052132 -70.76953125 4.4296875 C-71.91659916 4.436938 -71.91659916 4.436938 -73.08684015 4.44433498 C-99.6444394 4.64637433 -124.72733865 7.52343631 -150.56095695 14.12921524 C-156.7850714 15.68332176 -162.62303452 16.94806033 -168.625 14.0625 C-171.0571435 11.90673644 -172.03729267 10.69283241 -173.5 7.9375 C-174.9895261 4.51545479 -174.9895261 4.51545479 -177.625 3.6875 C-178.49125 3.6565625 -178.49125 3.6565625 -179.375 3.625 C-179.375 2.965 -179.375 2.305 -179.375 1.625 C-122.70833333 1.625 -66.04166667 1.625 -9.375 1.625 C-8.76398438 1.28726563 -8.15296875 0.94953125 -7.5234375 0.6015625 C-4.74672148 -0.66058115 -3.01362425 -0.37154272 0 0 Z " fill="#8D9A9A" transform="translate(201.375,215.375)"/>
<path d="M0 0 C3.5 1.3125 3.5 1.3125 6 3 C7.23742561 6.71227682 6.44982212 7.49236583 5 11 C3.92931813 18.33698842 5.23404807 23.62855569 8.90625 30.00390625 C10 32 10 32 10 34 C5.24946489 34.07435222 0.49927113 34.12869691 -4.25170898 34.16479492 C-5.86667789 34.17984876 -7.48160613 34.20029648 -9.09643555 34.22631836 C-11.42246555 34.26285286 -13.74795341 34.27976015 -16.07421875 34.29296875 C-17.15107185 34.31619453 -17.15107185 34.31619453 -18.24967957 34.33988953 C-22.69591748 34.34137041 -25.44912043 33.70245033 -29 31 C-31.10101595 28.3259797 -30.99846976 26.95715315 -30.875 23.5 C-29.90059604 19.60238417 -28.84551444 18.67305902 -26 16 C-24.79950593 12.89992799 -24.79950593 12.89992799 -24 10 C-23 9 -23 9 -20.4375 8.9375 C-19.633125 8.958125 -18.82875 8.97875 -18 9 C-17.773125 8.4225 -17.54625 7.845 -17.3125 7.25 C-13.25727655 0.29818837 -7.36851753 -0.70470721 0 0 Z " fill="#018BF1" transform="translate(157,86)"/>
<path d="M0 0 C0 28.05 0 56.1 0 85 C-0.33 85 -0.66 85 -1 85 C-2.70890009 76.73510318 -4.40487076 68.46769801 -6.08496857 60.19690323 C-6.86572862 56.35538932 -7.6507021 52.51484355 -8.44580078 48.67626953 C-9.2147697 44.96302473 -9.97202213 41.24755634 -10.72163391 37.53035736 C-11.00778468 36.12155988 -11.29795548 34.713572 -11.592453 33.30649567 C-16.01647125 12.13046472 -16.01647125 12.13046472 -13.02697754 6.00689697 C-9.11502034 1.00766174 -6.17238273 0 0 0 Z " fill="#A0B2B2" transform="translate(14,65)"/>
<path d="M0 0 C58.08 0 116.16 0 176 0 C175.34 1.98 174.68 3.96 174 6 C173.01 5.505 173.01 5.505 172 5 C169.80428648 4.91406946 167.60584504 4.8957504 165.40847778 4.90666199 C164.7235544 4.90862983 164.03863102 4.91059766 163.33295238 4.91262513 C161.02677411 4.92037403 158.72069435 4.93523784 156.41455078 4.94995117 C154.76559642 4.95677818 153.11663993 4.96310899 151.46768188 4.96897888 C147.91106724 4.98232991 144.3544797 4.99847431 140.79788589 5.01653099 C135.17621663 5.04430957 129.55454779 5.0613551 123.93283081 5.07600403 C122.00971409 5.08114819 120.08659741 5.08630481 118.16348076 5.09147358 C117.20029922 5.09405914 116.23711769 5.0966447 115.24474883 5.09930861 C102.15284508 5.13538852 89.06102626 5.18075491 75.96923828 5.24682617 C67.14368483 5.29128057 58.31820545 5.32156571 49.49254978 5.33568364 C44.81980575 5.34376864 40.14734451 5.35933301 35.47470474 5.39235497 C31.0801536 5.42335505 26.68594289 5.4358836 22.29128647 5.43413734 C20.67715538 5.43683855 19.06301912 5.44642901 17.44897461 5.46336365 C15.24738283 5.48546384 13.04714365 5.48296743 10.8454895 5.47428894 C8.99658206 5.48176793 8.99658206 5.48176793 7.11032295 5.489398 C3.43388424 4.91092374 2.24592657 3.904066 0 1 C0 0.67 0 0.34 0 0 Z " fill="#B4BFBE" transform="translate(16,213)"/>
<path d="M0 0 C1.0209375 0.495 1.0209375 0.495 2.0625 1 C0.29474601 5.02766676 -2.32937625 8.42801298 -4.9375 11.9375 C-5.42154297 12.59121582 -5.90558594 13.24493164 -6.40429688 13.91845703 C-7.4107935 15.27408626 -8.41927934 16.62824072 -9.4296875 17.98095703 C-10.41682686 19.30279034 -11.40130948 20.62661287 -12.3828125 21.95263672 C-13.72658732 23.76607585 -15.08021697 25.57165793 -16.4375 27.375 C-16.84613281 27.92792725 -17.25476562 28.48085449 -17.67578125 29.05053711 C-19.71428226 31.73033077 -20.66172049 32.9080735 -23.9375 34 C-30.46421756 31.70992366 -30.46421756 31.70992366 -32.9375 28 C-33.39257382 23.90433558 -33.53338455 21.81437556 -31.0625 18.4375 C-30.36125 17.633125 -29.66 16.82875 -28.9375 16 C-28.23585358 14.01200182 -27.56377128 12.01301483 -26.9375 10 C-24.9375 8 -24.9375 8 -22.5625 7.6875 C-19.0148985 6.75836627 -18.17094201 4.84256256 -15.9375 2 C-10.63805698 -1.41519661 -5.99818952 -2.04193686 0 0 Z " fill="#028CF0" transform="translate(71.9375,119)"/>
<path d="M0 0 C4.29 0 8.58 0 13 0 C13 0.66 13 1.32 13 2 C14.06589355 1.9285376 15.13178711 1.8570752 16.22998047 1.78344727 C27.87405684 1.04568725 39.46059909 0.87788445 51.125 0.9375 C52.87369661 0.94253526 54.62239465 0.94709451 56.37109375 0.95117188 C60.58076589 0.96199359 64.79036613 0.97914116 69 1 C66.63031574 3.36968426 65.46126474 3.50484589 62.21826172 4.14501953 C61.22317596 4.34507599 60.22809021 4.54513245 59.20285034 4.75125122 C58.1227066 4.95966644 57.04256287 5.16808167 55.9296875 5.3828125 C54.81949249 5.60194305 53.70929749 5.82107361 52.56546021 6.04684448 C50.21072558 6.50948085 47.85521894 6.96820216 45.49902344 7.42333984 C41.90847419 8.11851894 38.32139089 8.82980998 34.734375 9.54296875 C32.44550379 9.99056266 30.15644677 10.4372076 27.8671875 10.8828125 C26.26518997 11.20150803 26.26518997 11.20150803 24.63082886 11.52664185 C10.57163388 14.21303485 10.57163388 14.21303485 4.6875 11.4375 C1.33546846 8.39728535 0.3503308 6.28928606 -1 2 C-0.67 1.34 -0.34 0.68 0 0 Z " fill="#677273" transform="translate(28,218)"/>
<path d="M0 0 C56.76 0 113.52 0 172 0 C171.67 1.32 171.34 2.64 171 4 C170.01 3.505 170.01 3.505 169 3 C166.79551506 2.90547921 164.58807104 2.87810129 162.38156128 2.87974548 C161.34994281 2.87846385 161.34994281 2.87846385 160.29748356 2.87715632 C157.98198768 2.87550295 155.66656348 2.88102055 153.35107422 2.88647461 C151.69562787 2.88675654 150.04018139 2.88659864 148.38473511 2.8860321 C143.88085407 2.88574435 139.37699948 2.89163752 134.8731246 2.89860606 C130.16990384 2.90484327 125.46668251 2.90544369 120.76345825 2.90663147 C111.85286161 2.9097437 102.9422772 2.91795564 94.03168595 2.92798096 C83.8891498 2.93914545 73.74661309 2.9446534 63.60407233 2.94967639 C42.73604139 2.96013833 21.86802146 2.97773569 1 3 C0.67 2.01 0.34 1.02 0 0 Z " fill="#9FACAC" transform="translate(19,215)"/>
<path d="M0 0 C6.6188839 2.95737366 10.0323721 9.15932949 14 15 C13.67 15.66 13.34 16.32 13 17 C8.25 16.25 8.25 16.25 6 14 C2.70285207 14.32971479 1.3773161 14.6226839 -1 17 C-4.29714793 16.67028521 -5.6226839 16.3773161 -8 14 C-10.57061311 13.35232207 -10.57061311 13.35232207 -13 13 C-13.33 13.99 -13.66 14.98 -14 16 C-15.65 16.33 -17.3 16.66 -19 17 C-19 10.30159807 -14.01608453 6.06648664 -9.5 1.4375 C-6.05247864 -0.54482478 -3.92082381 -0.55029106 0 0 Z " fill="#ECF2ED" transform="translate(86,117)"/>
<path d="M0 0 C4.93744168 1.31665111 8.0034738 3.60496027 11.75 7 C12.28238281 7.47566406 12.81476563 7.95132813 13.36328125 8.44140625 C14.75 9.75 14.75 9.75 16.75 12 C16.75 12.66 16.75 13.32 16.75 14 C12 13.25 12 13.25 9.75 11 C6.45285207 11.32971479 5.1273161 11.6226839 2.75 14 C-0.54714793 13.67028521 -1.8726839 13.3773161 -4.25 11 C-7.54714793 11.32971479 -8.8726839 11.6226839 -11.25 14 C-13.875 14.125 -13.875 14.125 -16.25 14 C-16.25 11 -16.25 11 -13.90625 8.51953125 C-4.6442756 0.32509929 -4.6442756 0.32509929 0 0 Z " fill="#E5EFEB" transform="translate(161.25,133)"/>
<path d="M0 0 C7.11905227 5.80683219 13.47374812 12.36285444 19.9375 18.875 C21.10979204 20.05231638 22.28231614 21.22940174 23.45507812 22.40625 C26.30606982 25.26817489 29.15389615 28.13321457 32 31 C31 33 30 35 29 37 C28.01 37 27.02 37 26 37 C24.53295898 35.4621582 24.53295898 35.4621582 22.99609375 33.30078125 C22.4247168 32.50945801 21.85333984 31.71813477 21.26464844 30.90283203 C20.66168945 30.04802246 20.05873047 29.19321289 19.4375 28.3125 C18.18229817 26.56546532 16.9257803 24.81937545 15.66796875 23.07421875 C15.04841309 22.21103027 14.42885742 21.3478418 13.79052734 20.45849609 C10.61389678 16.09680128 7.25272413 11.88338558 3.890625 7.6640625 C2.10680184 5.1504935 0.99274068 2.90429455 0 0 Z " fill="#1D89E6" transform="translate(97,127)"/>
<path d="M0 0 C4.56748842 0.43058662 9.03767864 0.60909807 13.625 0.5625 C20.71454646 0.49920048 27.68676171 0.96137334 34.75 1.5625 C34.75 2.2225 34.75 2.8825 34.75 3.5625 C19.9 3.5625 5.05 3.5625 -10.25 3.5625 C-6.30642023 -0.38107977 -5.32111291 -0.57621677 0 0 Z " fill="#7F8E8D" transform="translate(201.25,215.4375)"/>
<path d="M0 0 C0.53109375 0.26296875 1.0621875 0.5259375 1.609375 0.796875 C0.949375 0.796875 0.289375 0.796875 -0.390625 0.796875 C-0.65230469 1.36921875 -0.91398438 1.9415625 -1.18359375 2.53125 C-2.47914586 4.96303066 -3.93761475 6.93296028 -5.703125 9.046875 C-6.27675781 9.75328125 -6.85039062 10.4596875 -7.44140625 11.1875 C-9.390625 12.796875 -9.390625 12.796875 -12.12109375 13.03125 C-12.87003906 12.95390625 -13.61898437 12.8765625 -14.390625 12.796875 C-14.390625 9.796875 -14.390625 9.796875 -11.90625 7.28125 C-10.82567249 6.36036375 -9.73671716 5.44923924 -8.640625 4.546875 C-8.10179687 4.07507813 -7.56296875 3.60328125 -7.0078125 3.1171875 C-2.96846165 -0.25222223 -2.96846165 -0.25222223 0 0 Z " fill="#BFD0CC" transform="translate(159.390625,134.203125)"/>
<path d="M0 0 C1.02222656 0.09990234 2.04445312 0.19980469 3.09765625 0.30273438 C5.60754773 0.54903214 8.11649887 0.80248409 10.625 1.0625 C10.295 2.0525 9.965 3.0425 9.625 4.0625 C8.305 4.0625 6.985 4.0625 5.625 4.0625 C5.625 3.4025 5.625 2.7425 5.625 2.0625 C4.26568359 2.07990234 4.26568359 2.07990234 2.87890625 2.09765625 C-3.97003464 2.14838915 -10.588908 1.99851269 -17.375 1.0625 C-17.375 0.7325 -17.375 0.4025 -17.375 0.0625 C-11.49092292 -1.37337547 -5.94314592 -0.61732032 0 0 Z " fill="#92A0A0" transform="translate(230.375,214.9375)"/>
<path d="M0 0 C5.28 0 10.56 0 16 0 C12.84440202 3.15559798 9.66651548 2.95481251 5.3125 3.25 C4.219375 3.1675 3.12625 3.085 2 3 C1.34 2.01 0.68 1.02 0 0 Z " fill="#606A6B" transform="translate(81,219)"/>
<path d="M0 0 C-1.24196122 1.15454162 -2.49392845 2.29832562 -3.75 3.4375 C-4.79414063 4.39462891 -4.79414063 4.39462891 -5.859375 5.37109375 C-7.98792725 6.99081325 -9.39023405 7.58267256 -12 8 C-11.04663979 6.68388323 -10.08714226 5.37221039 -9.125 4.0625 C-8.59132812 3.33160156 -8.05765625 2.60070312 -7.5078125 1.84765625 C-4.97993263 -1.24997893 -3.63337773 -1.09001332 0 0 Z " fill="#D6E0DE" transform="translate(165,135)"/>
<path d="M0 0 C0 3.57575896 -1.08840607 5.05295935 -3 8 C-4.32 7.67 -5.64 7.34 -7 7 C-4.66666667 4.66666667 -2.33333333 2.33333333 0 0 Z " fill="#ACC5C0" transform="translate(151,139)"/>
</svg>
